<svg width="973" height="1024" viewBox="0 0 973 1024" fill="none" xmlns="http://www.w3.org/2000/svg">
<path d="M548.037 313.926C531.286 312.552 521.159 318.399 517.657 331.474C514.025 345.031 514.362 361.21 518.665 380.007C522.355 399.16 530.418 418.449 542.853 437.869C575.557 488.154 628.696 523.157 702.271 542.878C738.575 552.608 774.078 555.638 808.783 551.966C837.643 577.866 857.068 611.875 867.055 653.994C877.045 696.114 876.333 738.478 864.919 781.089C835.088 892.457 765.597 965.95 656.449 1001.56C562.705 1031.97 457.263 1031.47 340.124 1000.07C252.997 976.717 182.196 947.619 127.717 912.778C73.1076 878.419 30.8165 841.653 0.842775 802.48C-1.73 767.539 1.58771 732.878 10.7964 698.498C20.0051 664.121 32.9693 634.121 49.689 608.502C66.4086 582.883 85.7502 563.934 107.716 551.658C120.929 568.177 147.39 588.502 187.098 612.638C226.805 636.775 264.327 653.58 299.661 663.05C334.999 672.521 359.3 676.701 372.568 675.587C385.353 674.343 392.975 669.119 395.441 659.92C396.607 655.562 396.985 651.253 396.569 646.989C378.461 646.806 356.096 643.146 329.474 636.01C235.085 610.711 164.088 567.808 116.483 507.302C60.5636 435.225 46.8723 345.926 75.4047 239.399C100.567 145.461 159.446 77.6878 252.043 36.0799C352.098 -8.20134 471.585 -11.7216 610.507 25.5143C686.985 46.0127 751.742 69.5983 804.778 96.2709C857.944 122.458 907.324 156.97 952.915 199.812C975.08 262.32 978.9 320.692 964.374 374.923C949.718 429.637 918.956 469.917 872.087 495.757C825.219 521.6 774.677 527.254 720.465 512.723C665.767 498.062 624.22 474.989 595.819 443.504C566.933 411.889 551.008 368.696 548.037 313.926Z" fill="#FDFBF9"/>
<path d="M370.155 342.102C403.367 342.102 430.29 315.17 430.29 281.947C430.29 248.725 403.367 221.793 370.155 221.793C336.944 221.793 310.021 248.725 310.021 281.947C310.021 315.17 336.944 342.102 370.155 342.102Z" fill="#21272B"/>
</svg>
